{
	"asset":{
		"generator":"Khronos glTF Blender I/O v3.6.28",
		"version":"2.0"
	},
	"scene":0,
	"scenes":[
		{
			"name":"Scene",
			"nodes":[
				0
			]
		}
	],
	"nodes":[
		{
			"mesh":0,
			"name":"Cylinder.001",
			"rotation":[
				0,
				0.9438972473144531,
				-0.33023932576179504,
				0
			],
			"scale":[
				-0.1152978390455246,
				-0.22776728868484497,
				-0.1152978390455246
			],
			"translation":[
				0,
				1.4348385334014893,
				-0.07367069274187088
			]
		}
	],
	"meshes":[
		{
			"name":"Cylinder.003",
			"primitives":[
				{
					"attributes":{
						"POSITION":0,
						"NORMAL":1,
						"TEXCOORD_0":2
					},
					"indices":3
				}
			]
		}
	],
	"accessors":[
		{
			"bufferView":0,
			"componentType":5126,
			"count":5417,
			"max":[
				8.673187255859375,
				9.502126693725586,
				1.9678878784179688
			],
			"min":[
				-8.673181533813477,
				-1.2740707397460938,
				-15.901243209838867
			],
			"type":"VEC3"
		},
		{
			"bufferView":1,
			"componentType":5126,
			"count":5417,
			"type":"VEC3"
		},
		{
			"bufferView":2,
			"componentType":5126,
			"count":5417,
			"type":"VEC2"
		},
		{
			"bufferView":3,
			"componentType":5123,
			"count":7860,
			"type":"SCALAR"
		}
	],
	"bufferViews":[
		{
			"buffer":0,
			"byteLength":65004,
			"byteOffset":0,
			"target":34962
		},
		{
			"buffer":0,
			"byteLength":65004,
			"byteOffset":65004,
			"target":34962
		},
		{
			"buffer":0,
			"byteLength":43336,
			"byteOffset":130008,
			"target":34962
		},
		{
			"buffer":0,
			"byteLength":15720,
			"byteOffset":173344,
			"target":34963
		}
	],
	"buffers":[
		{
			"byteLength":189064,
			"uri":"data:application/octet-stream;base64,"
		}
	],
    "images": [
        {
        "uri": "textures/bomb_tex.png"
        }
      ],
    "textures": [
        {
        "sampler": 0,
        "source": 0
        }
    ]
}