{
	"asset":{
		"generator":"Khronos glTF Blender I/O v3.6.27",
		"version":"2.0"
	},
	"scene":0,
	"scenes":[
		{
			"name":"Scene",
			"nodes":[
				0
			]
		}
	],
	"nodes":[
		{
			"mesh":0,
			"name":"Plane"
		}
	],
	"meshes":[
		{
			"name":"Plane",
			"primitives":[
				{
					"attributes":{
						"POSITION":0,
						"NORMAL":1,
						"TEXCOORD_0":2
					},
					"indices":3
				}
			]
		}
	],
	"accessors":[
		{
			"bufferView":0,
			"componentType":5126,
			"count":11126,
			"max":[
				1.516400694847107,
				1.433943271636963,
				0.860200822353363
			],
			"min":[
				-1.516400694847107,
				0,
				-0.7842727899551392
			],
			"type":"VEC3"
		},
		{
			"bufferView":1,
			"componentType":5126,
			"count":11126,
			"type":"VEC3"
		},
		{
			"bufferView":2,
			"componentType":5126,
			"count":11126,
			"type":"VEC2"
		},
		{
			"bufferView":3,
			"componentType":5123,
			"count":21492,
			"type":"SCALAR"
		}
	],
	"bufferViews":[
		{
			"buffer":0,
			"byteLength":133512,
			"byteOffset":0,
			"target":34962
		},
		{
			"buffer":0,
			"byteLength":133512,
			"byteOffset":133512,
			"target":34962
		},
		{
			"buffer":0,
			"byteLength":89008,
			"byteOffset":267024,
			"target":34962
		},
		{
			"buffer":0,
			"byteLength":42984,
			"byteOffset":356032,
			"target":34963
		}
	],
	"buffers":[
		{
			"byteLength":399016,
			"uri":"data:application/octet-stream;base64,"
		}
	],
	"images": [
		{
		"uri": "textures/tc_combined_v2.png"
		}
  	],
	"textures": [
		{
		"sampler": 0,
		"source": 0
		}
	]
}
