{
	"asset":{
		"generator":"Khronos glTF Blender I/O v3.6.27",
		"version":"2.0"
	},
	"scene":0,
	"scenes":[
		{
			"name":"Scene",
			"nodes":[
				0
			]
		}
	],
	"nodes":[
		{
			"mesh":0,
			"name":"Cylinder",
			"translation":[
				0,
				0.10529303550720215,
				0.7811571359634399
			]
		}
	],
	"meshes":[
		{
			"name":"Cylinder.001",
			"primitives":[
				{
					"attributes":{
						"POSITION":0,
						"NORMAL":1,
						"TEXCOORD_0":2
					},
					"indices":3
				}
			]
		}
	],
	"accessors":[
		{
			"bufferView":0,
			"componentType":5126,
			"count":1681,
			"max":[
				1.5214797258377075,
				0.8018103241920471,
				0.7984632849693298
			],
			"min":[
				-1.5255908966064453,
				-0.09439273178577423,
				-0.7833630442619324
			],
			"type":"VEC3"
		},
		{
			"bufferView":1,
			"componentType":5126,
			"count":1681,
			"type":"VEC3"
		},
		{
			"bufferView":2,
			"componentType":5126,
			"count":1681,
			"type":"VEC2"
		},
		{
			"bufferView":3,
			"componentType":5123,
			"count":2982,
			"type":"SCALAR"
		}
	],
	"bufferViews":[
		{
			"buffer":0,
			"byteLength":20172,
			"byteOffset":0,
			"target":34962
		},
		{
			"buffer":0,
			"byteLength":20172,
			"byteOffset":20172,
			"target":34962
		},
		{
			"buffer":0,
			"byteLength":13448,
			"byteOffset":40344,
			"target":34962
		},
		{
			"buffer":0,
			"byteLength":5964,
			"byteOffset":53792,
			"target":34963
		}
	],
	"buffers":[
		{
			"byteLength":59756,
			"uri":"data:application/octet-stream;base64,"
		}
	],
	"images": [
		{
		"uri": "textures/tc_lid_baked.png"
		}
  	],
	"textures": [
		{
		"sampler": 0,
		"source": 0
		}
	]
}
