{
	"asset":{
		"generator":"Khronos glTF Blender I/O v3.6.27",
		"version":"2.0"
	},
	"scene":0,
	"scenes":[
		{
			"name":"Scene",
			"nodes":[
				0
			]
		}
	],
	"nodes":[
		{
			"mesh":0,
			"name":"KEY"
		}
	],
	"meshes":[
		{
			"name":"Cube",
			"primitives":[
				{
					"attributes":{
						"POSITION":0,
						"NORMAL":1,
						"TEXCOORD_0":2
					},
					"indices":3
				}
			]
		}
	],
	"accessors":[
		{
			"bufferView":0,
			"componentType":5126,
			"count":4068,
			"max":[
				0.8644290566444397,
				0.09193750470876694,
				2.0263822078704834
			],
			"min":[
				-0.8342740535736084,
				-0.09130679816007614,
				-1.684792160987854
			],
			"type":"VEC3"
		},
		{
			"bufferView":1,
			"componentType":5126,
			"count":4068,
			"type":"VEC3"
		},
		{
			"bufferView":2,
			"componentType":5126,
			"count":4068,
			"type":"VEC2"
		},
		{
			"bufferView":3,
			"componentType":5123,
			"count":7386,
			"type":"SCALAR"
		}
	],
	"bufferViews":[
		{
			"buffer":0,
			"byteLength":48816,
			"byteOffset":0,
			"target":34962
		},
		{
			"buffer":0,
			"byteLength":48816,
			"byteOffset":48816,
			"target":34962
		},
		{
			"buffer":0,
			"byteLength":32544,
			"byteOffset":97632,
			"target":34962
		},
		{
			"buffer":0,
			"byteLength":14772,
			"byteOffset":130176,
			"target":34963
		}
	],
	"buffers":[
		{
			"byteLength":144948,
			"uri":"data:application/octet-stream;base64,"
		}
	],
	"images": [
		{
		"uri": "textures/key_baked.png"
		}
  	],
	"textures": [
		{
		"sampler": 0,
		"source": 0
		}
	]
}
