{
    "asset" : {
        "generator" : "Khronos glTF Blender I/O v3.3.36",
        "version" : "2.0"
    },
    "scene" : 0,
    "scenes" : [
        {
            "name" : "Scene",
            "nodes" : [
                0
            ]
        }
    ],
    "nodes" : [
        {
            "mesh" : 0,
            "name" : "Blade",
            "translation" : [
                0.1781950742006302,
                1.4855737686157227,
                -0.0007317960262298584
            ]
        }
    ],
    "meshes" : [
        {
            "name" : "Plane",
            "primitives" : [
                {
                    "attributes" : {
                        "POSITION" : 0,
                        "NORMAL" : 1,
                        "TEXCOORD_0" : 2
                    },
                    "indices" : 3
                }
            ]
        }
    ],
    "accessors" : [
        {
            "bufferView" : 0,
            "componentType" : 5126,
            "count" : 3008,
            "max" : [
                0.5662456750869751,
                3.3771777153015137,
                0.24116480350494385
            ],
            "min" : [
                -0.46402162313461304,
                -1.4953155517578125,
                -0.6434580087661743
            ],
            "type" : "VEC3"
        },
        {
            "bufferView" : 1,
            "componentType" : 5126,
            "count" : 3008,
            "type" : "VEC3"
        },
        {
            "bufferView" : 2,
            "componentType" : 5126,
            "count" : 3008,
            "type" : "VEC2"
        },
        {
            "bufferView" : 3,
            "componentType" : 5123,
            "count" : 6912,
            "type" : "SCALAR"
        }
    ],
    "bufferViews" : [
        {
            "buffer" : 0,
            "byteLength" : 36096,
            "byteOffset" : 0,
            "target" : 34962
        },
        {
            "buffer" : 0,
            "byteLength" : 36096,
            "byteOffset" : 36096,
            "target" : 34962
        },
        {
            "buffer" : 0,
            "byteLength" : 24064,
            "byteOffset" : 72192,
            "target" : 34962
        },
        {
            "buffer" : 0,
            "byteLength" : 13824,
            "byteOffset" : 96256,
            "target" : 34963
        }
    ],
    "buffers" : [
        {
            "byteLength" : 110080,
            "uri" : "data:application/octet-stream;base64,"
        }
    ]
    ,
    "images": [
        {
        "uri": "textures/sword.png"
        }
      ],
    "textures": [
        {
        "sampler": 0,
        "source": 0
        }
    ]
}

    
